<?xml version="1.0" encoding="UTF-8" standalone="no"?>
<!-- Created with Inkscape (http://www.inkscape.org/) -->

<svg
   width="432.09799"
   height="180.69099"
   viewBox="0 0 114.32593 47.807826"
   version="1.1"
   id="svg1"
   inkscape:version="1.4 (86a8ad7, 2024-10-11)"
   sodipodi:docname="lv-no-ppading-path.svg"
   inkscape:export-filename="lv.png"
   inkscape:export-xdpi="96"
   inkscape:export-ydpi="96"
   xmlns:inkscape="http://www.inkscape.org/namespaces/inkscape"
   xmlns:sodipodi="http://sodipodi.sourceforge.net/DTD/sodipodi-0.dtd"
   xmlns="http://www.w3.org/2000/svg"
   xmlns:svg="http://www.w3.org/2000/svg">
  <sodipodi:namedview
     id="namedview1"
     pagecolor="#ffffff"
     bordercolor="#000000"
     borderopacity="0.25"
     inkscape:showpageshadow="2"
     inkscape:pageopacity="0.0"
     inkscape:pagecheckerboard="0"
     inkscape:deskcolor="#d1d1d1"
     inkscape:document-units="mm"
     inkscape:zoom="4.2368968"
     inkscape:cx="232.12744"
     inkscape:cy="80.601444"
     inkscape:window-width="2560"
     inkscape:window-height="1369"
     inkscape:window-x="-8"
     inkscape:window-y="-8"
     inkscape:window-maximized="1"
     inkscape:current-layer="g4"
     inkscape:export-bgcolor="#ffffffff" />
  <defs
     id="defs1" />
  <g
     inkscape:label="Layer 1"
     inkscape:groupmode="layer"
     id="layer1">
    <g
       id="g4"
       transform="matrix(0.99999706,0,0,0.99999706,-10.570173,-27.099156)">
      <path
         d="m 32.133717,44.057746 q 0.343958,0 0.529166,0.3175 0.211667,0.317499 0.211667,0.873123 0,1.031874 -0.502708,1.640415 -1.481665,1.772706 -2.883955,2.48708 -1.375831,0.714374 -3.333745,0.714374 -1.375832,0 -2.539997,-0.343958 -1.164165,-0.343958 -2.831038,-1.031873 -1.508123,-0.661458 -2.910413,-1.084791 -1.349374,2.460622 -4.04812,2.460622 -1.481665,0 -2.354789,-0.661457 -0.899582,-0.687916 -0.899582,-1.746248 0,-1.296457 1.24354,-2.143122 1.24354,-0.873124 3.307288,-0.873124 h 0.343957 l 0.47625,-7.699365 q 0.15875,-2.64583 0.952499,-4.36562 0.793749,-1.719789 2.196039,-2.936871 1.217081,-1.058332 2.778121,-1.587498 1.56104,-0.555624 3.307287,-0.555624 2.857497,0 4.392078,1.481664 1.534582,1.481665 1.534582,3.862912 0,1.613956 -0.582083,2.619372 -0.582083,0.978957 -1.613956,0.978957 -0.740833,0 -1.164166,-0.343958 -0.423332,-0.370416 -0.423332,-1.031874 0,-0.238124 0.105833,-0.873124 0.15875,-0.740832 0.15875,-1.322914 0,-1.111249 -0.661458,-1.746248 -0.634999,-0.661458 -1.957914,-0.661458 -2.32833,0 -3.598329,1.534582 -1.269998,1.508123 -1.613956,4.762494 l -0.608541,6.006034 q -0.132291,1.269998 -0.343958,2.196038 1.693331,0.291042 4.233328,0.926041 1.481665,0.370416 2.275414,0.529166 0.793749,0.15875 1.40229,0.15875 1.534581,0 2.619371,-0.502708 1.111249,-0.529166 2.090206,-1.666873 0.3175,-0.370416 0.714374,-0.370416 z m 1.85209,6.032492 q -1.640415,0 -2.619372,-1.190623 -0.978957,-1.190624 -0.978957,-3.12208 0,-2.116664 0.978957,-3.995203 0.978957,-1.904997 2.592913,-3.042704 1.640415,-1.164165 3.466038,-1.164165 0.582082,0 0.76729,0.238124 0.211667,0.211667 0.343958,0.793749 0.555625,-0.105833 1.164165,-0.105833 1.296457,0 1.296457,0.926041 0,0.555624 -0.396874,2.645829 -0.608541,3.042705 -0.608541,4.233328 0,0.396875 0.185208,0.635 0.211666,0.238124 0.529166,0.238124 0.502708,0 1.217082,-0.634999 0.714374,-0.661457 1.931455,-2.116664 0.3175,-0.370416 0.714375,-0.370416 0.343957,0 0.529166,0.3175 0.211666,0.317499 0.211666,0.873123 0,1.058332 -0.502708,1.640415 -1.08479,1.349373 -2.301872,2.275414 -1.217082,0.92604 -2.354788,0.92604 -0.873124,0 -1.613957,-0.582082 -0.714374,-0.608541 -1.08479,-1.640415 -1.375832,2.222497 -3.466037,2.222497 z m 0.952498,-2.672288 q 0.582083,0 1.111249,-0.687916 0.529166,-0.687916 0.767291,-1.825622 l 0.978957,-4.868328 q -1.111249,0.02646 -2.063748,0.846666 -0.92604,0.793749 -1.481664,2.116664 -0.555625,1.322915 -0.555625,2.80458 0,0.820207 0.3175,1.217082 0.343958,0.396874 0.92604,0.396874 z m 13.149757,3.254371 q -1.375831,0 -2.116664,-0.634999 -0.714374,-0.635 -0.714374,-1.428749 0,-0.687915 0.502708,-1.190623 0.502708,-0.502708 1.481665,-0.502708 0.343958,0 0.793749,0.07937 0.476249,0.05292 0.714374,0.07937 -0.02646,-0.687916 -0.3175,-1.296457 -0.264583,-0.60854 -0.687915,-1.164165 -0.423333,-0.582082 -0.793749,-1.005415 -0.820208,1.56104 -1.640415,2.592913 -0.793749,1.031874 -1.746248,1.957914 -0.476249,0.47625 -1.005415,0.47625 -0.423333,0 -0.687916,-0.291042 -0.264583,-0.317499 -0.264583,-0.76729 0,-0.529166 0.370416,-0.978957 l 0.343958,-0.423333 q 1.455207,-1.799164 2.196039,-2.96333 0.476249,-0.76729 0.952499,-1.825622 0.502707,-1.058332 1.296456,-2.883955 0.502708,-1.164165 2.090206,-1.164165 0.740833,0 1.031874,0.132291 0.291041,0.132292 0.291041,0.423333 0,0.15875 -0.105833,0.502708 -0.105833,0.343958 -0.291041,0.687916 -0.47625,0.952498 -0.47625,1.613956 0,0.396874 0.264583,0.873124 0.291042,0.476249 0.873124,1.190623 0.846666,1.111249 1.269998,1.904998 0.449792,0.767291 0.449792,1.693331 0,1.111249 -0.529166,2.116664 -0.502708,0.978957 -1.428749,1.587498 -0.92604,0.608541 -2.116664,0.608541 z m 34.104709,-12.14436 q 0.608541,0 0.873124,0.264583 0.291041,0.264583 0.291041,0.687916 0,0.687916 -0.423333,1.217082 -0.396874,0.529166 -1.269998,0.555624 -2.116664,0.05292 -3.757078,-0.317499 -1.87854,3.942286 -4.550828,6.561658 -2.64583,2.592913 -5.318118,2.592913 -2.751663,0 -4.101037,-3.201454 -1.349373,-3.201454 -1.349373,-8.651864 0,-4.656661 0.661458,-8.360823 0.238124,-1.375831 0.661457,-1.852081 0.449791,-0.502707 1.508123,-0.502707 1.746248,0 1.746248,1.508123 0,0.15875 -0.05292,0.582082 -0.793749,4.762494 -0.793749,8.625406 0,4.04812 0.661458,6.164784 0.687916,2.090206 2.037289,2.090206 1.375831,0 2.989788,-1.904998 1.613956,-1.904998 2.963329,-4.788952 -1.613956,-1.005416 -2.434163,-2.592914 -0.820208,-1.613956 -0.820208,-3.704162 0,-2.090205 0.635,-3.518953 0.661457,-1.455207 1.772706,-2.169581 1.137707,-0.714374 2.513538,-0.714374 1.693331,0 2.672288,1.217082 1.005416,1.217081 1.005416,3.333745 0,3.042705 -1.322915,6.641034 1.40229,0.238124 3.201454,0.238124 z m -7.805198,-5.212285 q 0,2.592914 1.666873,3.836454 1.031873,-2.96333 1.031873,-4.894786 0,-1.111248 -0.291041,-1.613956 -0.291041,-0.529166 -0.793749,-0.529166 -0.714374,0 -1.164165,0.846666 -0.449791,0.820207 -0.449791,2.354788 z m 18.203322,10.74207 q 0.343958,0 0.529166,0.3175 0.211666,0.317499 0.211666,0.873123 0,1.058332 -0.502708,1.640415 -0.978957,1.190624 -2.778121,2.196039 -1.772706,1.005415 -3.809995,1.005415 -2.778122,0 -4.312703,-1.508123 -1.534581,-1.508123 -1.534581,-4.127495 0,-1.825622 0.76729,-3.386662 0.767291,-1.587498 2.116664,-2.513538 1.375832,-0.926041 3.095621,-0.926041 1.534582,0 2.460622,0.926041 0.926041,0.899582 0.926041,2.460622 0,1.825622 -1.322915,3.148537 -1.296457,1.296457 -4.418536,2.063748 0.661457,1.217081 2.513538,1.217081 1.190624,0 2.698747,-0.820207 1.534581,-0.846666 2.64583,-2.196039 0.317499,-0.370416 0.714374,-0.370416 z m -6.667492,-3.836453 q -0.978957,0 -1.666873,1.137706 -0.661457,1.137707 -0.661457,2.751664 v 0.05292 q 1.56104,-0.370416 2.460622,-1.111248 0.899582,-0.740833 0.899582,-1.71979 0,-0.502708 -0.291041,-0.793749 -0.264583,-0.317499 -0.740833,-0.317499 z m 18.679567,3.88937 q 0.34396,0 0.52917,0.343957 0.21167,0.3175 0.21167,0.820208 0,0.608541 -0.18521,0.952499 -0.18521,0.343957 -0.58208,0.60854 -2.27542,1.534582 -3.33375,2.275414 l -1.693332,1.137707 q -1.005415,5.476868 -2.64583,8.598947 -1.613956,3.148538 -4.127494,3.148538 -1.349374,0 -2.196039,-0.846665 -0.846666,-0.820208 -0.846666,-2.169581 0,-1.878539 1.481665,-4.04812 1.481665,-2.143122 5.556243,-5.29166 l 0.15875,-1.031874 q -0.449791,0.714375 -1.190624,1.111249 -0.714374,0.370416 -1.428748,0.370416 -1.640415,0 -2.619372,-1.190623 -0.978957,-1.190624 -0.978957,-3.12208 0,-2.116664 0.978957,-3.995203 0.978957,-1.904997 2.592914,-3.042704 1.640414,-1.164165 3.466037,-1.164165 0.582082,0 0.767291,0.238124 0.211666,0.211667 0.343957,0.793749 0.502708,-0.105833 1.164168,-0.105833 0.66146,0 0.92604,0.211666 0.29104,0.185209 0.29104,0.767291 0,0.3175 -0.0265,0.502708 -0.10583,0.820207 -0.66146,4.153953 -0.10583,0.634999 -0.23812,1.40229 -0.10583,0.740832 -0.23813,1.587498 2.03729,-1.587498 3.91583,-2.80458 0.34396,-0.211666 0.60854,-0.211666 z m -9.339776,3.307287 q 0.608541,0 1.164165,-0.740832 0.555624,-0.740833 0.793749,-2.116664 l 0.846665,-4.52437 q -1.08479,0.02646 -2.01083,0.846666 -0.926041,0.793749 -1.481665,2.116664 -0.555624,1.322915 -0.555624,2.80458 0,0.820207 0.317499,1.217082 0.343958,0.396874 0.926041,0.396874 z m -2.196039,12.012068 q 0.661457,0 1.481665,-1.587498 0.846665,-1.587498 1.613956,-5.053535 -2.037289,1.746248 -2.936871,3.148537 -0.899583,1.40229 -0.899583,2.460622 0,0.449791 0.15875,0.740833 0.185208,0.291041 0.582083,0.291041 z m 13.652485,-9.33978 q -1.64042,0 -2.61937,-1.190623 -0.97896,-1.190624 -0.97896,-3.12208 0,-2.116664 0.97896,-3.995203 0.97895,-1.904997 2.59291,-3.042704 1.64041,-1.164165 3.46604,-1.164165 0.58208,0 0.76729,0.238124 0.21166,0.211667 0.34396,0.793749 0.55562,-0.105833 1.16416,-0.105833 1.29646,0 1.29646,0.926041 0,0.555624 -0.39688,2.645829 -0.60854,3.042705 -0.60854,4.233328 0,0.396875 0.18521,0.635 0.21167,0.238124 0.52917,0.238124 0.5027,0 1.21708,-0.634999 0.71437,-0.661457 1.93145,-2.116664 0.3175,-0.370416 0.71438,-0.370416 0.34396,0 0.52916,0.3175 0.21167,0.317499 0.21167,0.873123 0,1.058332 -0.50271,1.640415 -1.08479,1.349373 -2.30187,2.275414 -1.21708,0.92604 -2.35479,0.92604 -0.87312,0 -1.61395,-0.582082 -0.71438,-0.608541 -1.08479,-1.640415 -1.37584,2.222497 -3.46604,2.222497 z m 0.9525,-2.672288 q 0.58208,0 1.11125,-0.687916 0.52916,-0.687916 0.76729,-1.825622 l 0.97895,-4.868328 q -1.11125,0.02646 -2.06374,0.846666 -0.92604,0.793749 -1.48167,2.116664 -0.55562,1.322915 -0.55562,2.80458 0,0.820207 0.3175,1.217082 0.34395,0.396874 0.92604,0.396874 z m 13.14975,3.254371 q -1.37583,0 -2.11666,-0.634999 -0.71438,-0.635 -0.71438,-1.428749 0,-0.687915 0.50271,-1.190623 0.50271,-0.502708 1.48166,-0.502708 0.34396,0 0.79375,0.07937 0.47625,0.05292 0.71438,0.07937 -0.0265,-0.687916 -0.3175,-1.296457 -0.26459,-0.60854 -0.68792,-1.164165 -0.42333,-0.582082 -0.79375,-1.005415 -0.8202,1.56104 -1.64041,2.592913 -0.79375,1.031874 -1.74625,1.957914 -0.47625,0.47625 -1.00541,0.47625 -0.42334,0 -0.68792,-0.291042 -0.26458,-0.317499 -0.26458,-0.76729 0,-0.529166 0.37041,-0.978957 l 0.34396,-0.423333 q 1.45521,-1.799164 2.19604,-2.96333 0.47625,-0.76729 0.9525,-1.825622 0.50271,-1.058332 1.29646,-2.883955 0.5027,-1.164165 2.0902,-1.164165 0.74083,0 1.03187,0.132291 0.29105,0.132292 0.29105,0.423333 0,0.15875 -0.10584,0.502708 -0.10583,0.343958 -0.29104,0.687916 -0.47625,0.952498 -0.47625,1.613956 0,0.396874 0.26458,0.873124 0.29105,0.476249 0.87313,1.190623 0.84666,1.111249 1.27,1.904998 0.44979,0.767291 0.44979,1.693331 0,1.111249 -0.52917,2.116664 -0.50271,0.978957 -1.42875,1.587498 -0.92604,0.608541 -2.11666,0.608541 z"
         id="text3"
         style="-inkscape-font-specification:pacifico;fill:#0064ff;stroke-width:0.933;stroke-linecap:square;stroke-miterlimit:0.3"
         aria-label="Las Vegas" />
      <path
         style="-inkscape-font-specification:'Avenir Next LT Pro Semi-Bold';fill:#0064ff;stroke-width:0.933;stroke-linecap:square;stroke-miterlimit:0.3"
         d="m 46.708223,69.857427 c -0.4445,-0.587375 -1.309687,-0.85725 -2.039937,-0.85725 -1.730375,0 -3.048,1.135063 -3.048,2.936875 0,1.754188 1.246187,2.968625 3.000375,2.968625 0.9525,0 1.68275,-0.365125 2.174875,-0.98425 l -0.801688,-0.563562 c -0.28575,0.388937 -0.762,0.650875 -1.36525,0.650875 -1.158875,0 -1.905,-0.849313 -1.905,-2.071688 0,-1.158875 0.785813,-2.055812 1.944688,-2.055812 0.452437,0 0.98425,0.174625 1.277937,0.579437 z m -0.07144,4.905375 h 1.119188 l 0.508,-1.285875 h 2.436812 l 0.523875,1.285875 h 1.143 l -2.420937,-5.61975 h -0.865188 z m 1.9685,-2.143125 0.881063,-2.286 0.865187,2.286 z m 7.834308,-3.01625 c -0.428625,-0.404812 -1.071563,-0.60325 -1.635125,-0.60325 -1.016,0 -2.055813,0.508 -2.055813,1.651 0,1.04775 0.738188,1.381125 1.420813,1.595438 0.706437,0.22225 1.293812,0.388937 1.293812,0.976312 0,0.60325 -0.547687,0.833438 -1.016,0.833438 -0.4445,0 -0.9525,-0.238125 -1.230312,-0.619125 l -0.714375,0.66675 c 0.4445,0.523875 1.198562,0.801687 1.928812,0.801687 1.103313,0 2.047875,-0.587375 2.047875,-1.793875 0,-1.103312 -0.92075,-1.420812 -1.643062,-1.643062 -0.635,-0.198438 -1.071563,-0.34925 -1.071563,-0.865188 0,-0.547687 0.531813,-0.769937 0.992188,-0.769937 0.396875,0 0.817562,0.206375 1.031875,0.484187 z m 1.039808,5.159375 h 1.000125 v -5.61975 h -1.000125 z m 2.238371,0 h 1.000125 V 70.42099 h 0.01588 l 2.667,4.341812 h 1.27 v -5.61975 h -1.000125 v 4.206875 h -0.01588 l -2.611438,-4.206875 h -1.325562 z m 5.92138,-2.82575 c 0,1.754188 1.277938,2.968625 3.008313,2.968625 1.754187,0 3.032125,-1.214437 3.032125,-2.968625 0,-1.801812 -1.277938,-2.936875 -3.032125,-2.936875 -1.730375,0 -3.008313,1.135063 -3.008313,2.936875 z m 1.087438,0 c 0,-1.158875 0.769937,-2.055812 1.928812,-2.055812 1.166813,0 1.93675,0.896937 1.93675,2.055812 0,1.198563 -0.785812,2.071688 -1.93675,2.071688 -1.143,0 -1.928812,-0.873125 -1.928812,-2.071688 z m 12.72382,-2.079625 c -0.4445,-0.587375 -1.309688,-0.85725 -2.039938,-0.85725 -1.730375,0 -3.048,1.135063 -3.048,2.936875 0,1.754188 1.246188,2.968625 3.000375,2.968625 0.9525,0 1.68275,-0.365125 2.174875,-0.98425 l -0.801687,-0.563562 c -0.28575,0.388937 -0.762,0.650875 -1.36525,0.650875 -1.158875,0 -1.905,-0.849313 -1.905,-2.071688 0,-1.158875 0.785812,-2.055812 1.944687,-2.055812 0.452438,0 0.98425,0.174625 1.277938,0.579437 z m 0.706432,4.905375 h 3.389312 v -0.889 h -2.389187 v -4.73075 h -1.000125 z m 8.342308,-5.61975 h -1.000125 v 3.516313 c 0,0.650875 -0.301625,1.349375 -1.262062,1.349375 -0.960438,0 -1.262063,-0.6985 -1.262063,-1.349375 v -3.516313 h -1.000125 v 3.556 c 0,1.357313 0.976313,2.206625 2.262188,2.206625 1.285875,0 2.262187,-0.849312 2.262187,-2.206625 z m 1.190631,5.61975 h 2.024063 c 1.063625,0 2.12725,-0.41275 2.12725,-1.635125 0,-0.754062 -0.508,-1.230312 -1.214438,-1.325562 v -0.01587 c 0.579438,-0.174625 0.976313,-0.595313 0.976313,-1.230313 0,-1.023937 -0.873125,-1.412875 -1.722438,-1.412875 h -2.19075 z m 1.000125,-4.79425 h 0.801688 c 0.754062,0 1.11125,0.198438 1.11125,0.6985 0,0.484188 -0.357188,0.762 -1.023938,0.762 h -0.889 z m 0,2.31775 h 0.936625 c 0.809625,0 1.214438,0.206375 1.214438,0.79375 0,0.738188 -0.738188,0.841375 -1.254125,0.841375 h -0.896938 z"
         id="text4"
         aria-label="CASINO CLUB" />
    </g>
  </g>
</svg>
